<?xml version="1.0" encoding="UTF-8" ?>
<!DOCTYPE svg PUBLIC "-//W3C//DTD SVG 1.1//EN" "http://www.w3.org/Graphics/SVG/1.1/DTD/svg11.dtd">
<svg width="224pt" height="197pt" viewBox="0 0 224 197" version="1.1" xmlns="http://www.w3.org/2000/svg">
<g id="#8953e9ff">
<path fill="#8953e9" opacity="1.00" d=" M 59.26 20.31 C 64.55 12.77 73.69 7.87 82.96 8.15 C 103.13 8.30 123.31 8.00 143.48 8.32 C 143.63 12.00 148.62 11.11 149.90 14.06 C 151.01 15.79 150.70 17.99 149.73 19.70 C 147.76 23.29 145.27 27.39 140.78 27.91 C 122.85 27.61 104.91 27.90 86.98 27.77 C 82.96 27.71 78.21 28.09 75.67 31.66 C 71.06 38.32 70.06 47.23 63.73 52.74 C 59.36 57.05 52.98 58.49 47.00 58.20 C 42.62 58.34 37.24 57.27 33.96 60.99 C 31.19 63.52 30.68 67.41 30.87 70.97 C 30.92 99.68 30.87 128.38 30.88 157.09 C 30.53 162.38 34.61 167.17 39.76 168.08 C 40.76 168.36 41.76 168.62 42.78 168.86 C 44.06 171.45 46.24 173.36 48.12 175.49 C 48.08 179.03 47.83 182.61 48.84 186.09 C 45.76 185.79 42.76 185.02 39.78 184.27 C 37.08 183.45 34.58 185.25 32.20 186.23 L 31.56 186.53 C 19.93 182.59 11.19 171.42 10.87 159.04 C 10.75 130.36 10.86 101.68 10.81 73.00 C 10.77 69.45 10.73 65.88 11.49 62.39 C 13.12 51.73 21.53 42.82 31.57 39.36 C 37.69 37.05 44.32 38.56 50.66 37.80 C 53.51 31.96 55.76 25.80 59.26 20.31 Z" />
</g>
<g id="#785bebff">
<path fill="#785beb" opacity="1.00" d=" M 149.90 14.06 C 148.62 11.11 143.63 12.00 143.48 8.32 C 152.01 9.88 160.10 15.00 164.23 22.75 C 166.01 25.97 167.44 29.37 168.93 32.73 C 168.31 32.93 167.06 33.33 166.44 33.53 C 163.97 39.84 160.38 45.54 156.45 51.02 C 152.16 45.64 150.54 38.75 147.17 32.84 C 145.78 30.41 143.28 28.97 140.78 27.91 C 145.27 27.39 147.76 23.29 149.73 19.70 C 150.70 17.99 151.01 15.79 149.90 14.06 Z" />
</g>
<g id="#6962eeff">
<path fill="#6962ee" opacity="1.00" d=" M 166.44 33.53 C 167.06 33.33 168.31 32.93 168.93 32.73 C 169.96 34.44 170.37 36.80 172.12 37.92 C 179.55 38.38 187.45 37.02 194.24 40.93 C 192.54 41.65 190.84 42.38 189.13 43.11 C 187.98 46.71 186.49 50.22 184.19 53.25 C 183.01 54.63 182.69 56.42 182.62 58.18 C 176.74 58.07 170.68 58.83 165.01 56.87 C 161.68 55.75 158.86 53.53 156.45 51.02 C 160.38 45.54 163.97 39.84 166.44 33.53 Z" />
</g>
<g id="#5868f1ff">
<path fill="#5868f1" opacity="1.00" d=" M 194.24 40.93 C 199.79 43.73 204.32 48.25 207.49 53.56 C 205.99 53.51 204.49 53.44 203.00 53.38 C 203.75 56.09 204.94 58.79 204.84 61.65 C 202.59 64.58 200.09 67.39 198.85 70.94 C 195.99 77.25 192.46 83.33 191.08 90.21 C 190.97 82.77 191.17 75.33 191.00 67.90 C 191.04 63.17 187.22 58.97 182.62 58.18 C 182.69 56.42 183.01 54.63 184.19 53.25 C 186.49 50.22 187.98 46.71 189.13 43.11 C 190.84 42.38 192.54 41.65 194.24 40.93 Z" />
</g>
<g id="#4c6ef3ff">
<path fill="#4c6ef3" opacity="1.00" d=" M 203.00 53.38 C 204.49 53.44 205.99 53.51 207.49 53.56 C 212.86 63.41 210.81 74.97 211.13 85.69 C 210.48 85.93 209.17 86.41 208.52 86.65 C 206.15 94.70 200.93 101.50 198.53 109.54 C 196.81 115.42 192.90 120.32 191.09 126.16 C 191.06 114.18 190.99 102.19 191.08 90.21 C 192.46 83.33 195.99 77.25 198.85 70.94 C 200.09 67.39 202.59 64.58 204.84 61.65 C 204.94 58.79 203.75 56.09 203.00 53.38 Z" />
</g>
<g id="#8355eaff">
<path fill="#8355ea" opacity="1.00" d=" M 85.38 67.35 C 99.94 56.65 122.12 57.41 135.34 69.92 C 135.15 74.39 133.99 78.98 131.05 82.46 C 129.09 83.03 127.02 82.44 125.08 82.07 C 114.98 73.04 97.55 74.43 89.42 85.43 C 82.16 94.00 82.16 107.93 89.59 116.40 C 92.60 119.78 96.13 123.02 100.60 124.28 C 104.98 125.73 109.65 125.50 114.19 125.26 C 113.32 125.68 112.46 126.11 111.60 126.55 C 110.84 129.53 110.24 132.74 108.13 135.11 C 105.90 137.62 102.86 139.20 99.92 140.72 C 89.13 138.55 79.68 131.32 73.94 122.04 C 67.55 111.79 66.41 98.61 70.35 87.25 C 73.00 79.18 78.69 72.43 85.38 67.35 Z" />
</g>
<g id="#705fedff">
<path fill="#705fed" opacity="1.00" d=" M 135.34 69.92 C 144.19 77.19 149.82 88.49 149.56 100.01 C 149.84 108.07 147.77 116.45 142.87 122.96 C 140.56 125.31 141.97 128.87 140.76 131.63 C 138.69 132.92 136.27 133.42 133.97 134.14 C 135.49 135.71 137.05 137.26 138.34 139.03 C 138.34 139.40 138.34 140.13 138.34 140.49 C 135.85 139.18 133.95 137.09 131.99 135.12 C 122.21 140.18 110.92 143.73 99.92 140.72 C 102.86 139.20 105.90 137.62 108.13 135.11 C 110.24 132.74 110.84 129.53 111.60 126.55 C 112.46 126.11 113.32 125.68 114.19 125.26 C 123.90 122.71 132.31 114.23 133.33 104.03 C 134.61 95.84 131.13 87.55 125.08 82.07 C 127.02 82.44 129.09 83.03 131.05 82.46 C 133.99 78.98 135.15 74.39 135.34 69.92 Z" />
</g>
<g id="#4272f3ff">
<path fill="#4272f3" opacity="1.00" d=" M 208.52 86.65 C 209.17 86.41 210.48 85.93 211.13 85.69 C 211.17 98.51 211.29 111.34 211.08 124.17 C 210.32 122.73 209.46 121.35 208.67 119.94 C 207.01 127.20 202.46 133.32 200.54 140.49 C 199.13 145.64 196.07 150.07 194.21 155.03 C 192.62 160.54 189.44 165.80 190.31 171.74 C 189.13 170.84 187.92 169.97 186.74 169.08 C 185.20 175.28 182.63 181.14 181.12 187.35 C 174.35 187.35 167.57 187.39 160.79 187.23 C 161.78 185.49 162.77 183.76 163.78 182.03 C 162.89 181.34 162.00 180.66 161.11 179.98 C 165.41 177.63 167.91 173.39 169.16 168.78 C 173.51 168.79 177.89 168.89 182.18 168.05 C 186.96 167.23 191.04 162.96 190.98 157.99 C 191.16 147.38 190.96 136.77 191.09 126.16 C 192.90 120.32 196.81 115.42 198.53 109.54 C 200.93 101.50 206.15 94.70 208.52 86.65 Z" />
</g>
<g id="#3577f5ff">
<path fill="#3577f5" opacity="1.00" d=" M 200.54 140.49 C 202.46 133.32 207.01 127.20 208.67 119.94 C 209.46 121.35 210.32 122.73 211.08 124.17 C 211.23 136.12 211.35 148.11 211.02 160.06 C 210.40 173.49 199.43 185.43 186.22 187.49 C 184.52 187.47 182.82 187.39 181.12 187.35 C 182.63 181.14 185.20 175.28 186.74 169.08 C 187.92 169.97 189.13 170.84 190.31 171.74 C 189.44 165.80 192.62 160.54 194.21 155.03 C 196.07 150.07 199.13 145.64 200.54 140.49 Z" />
</g>
<g id="#5e67f0ff">
<path fill="#5e67f0" opacity="1.00" d=" M 140.76 131.63 C 141.97 128.87 140.56 125.31 142.87 122.96 C 149.73 130.80 157.67 137.61 164.96 145.04 C 161.37 148.68 158.20 153.01 154.02 155.92 C 148.37 151.44 143.57 145.99 138.34 141.03 L 138.34 140.49 C 138.34 140.13 138.34 139.40 138.34 139.03 C 137.05 137.26 135.49 135.71 133.97 134.14 C 136.27 133.42 138.69 132.92 140.76 131.63 Z" />
</g>
<g id="#605abbd7">
<path fill="#605abb" opacity="0.84" d=" M 39.76 168.08 C 87.23 168.08 134.71 168.04 182.18 168.05 C 177.89 168.89 173.51 168.79 169.16 168.78 C 160.86 168.64 152.55 168.49 144.25 168.85 C 135.44 168.55 126.63 168.68 117.82 168.72 C 108.93 168.64 100.05 168.59 91.17 168.80 C 75.04 168.61 58.90 168.47 42.78 168.86 C 41.76 168.62 40.76 168.36 39.76 168.08 Z" />
</g>
<g id="#8256ebff">
<path fill="#8256eb" opacity="1.00" d=" M 42.78 168.86 C 58.90 168.47 75.04 168.61 91.17 168.80 C 89.99 172.96 89.25 177.22 88.26 181.42 C 87.81 184.28 84.97 185.61 82.95 187.26 C 66.91 187.44 50.87 187.32 34.84 187.36 C 34.18 187.08 32.86 186.51 32.20 186.23 C 34.58 185.25 37.08 183.45 39.78 184.27 C 42.76 185.02 45.76 185.79 48.84 186.09 C 47.83 182.61 48.08 179.03 48.12 175.49 C 46.24 173.36 44.06 171.45 42.78 168.86 Z" />
</g>
<g id="#715eedff">
<path fill="#715eed" opacity="1.00" d=" M 91.17 168.80 C 100.05 168.59 108.93 168.64 117.82 168.72 C 117.59 171.68 117.73 174.76 116.67 177.59 C 115.13 180.72 112.29 182.90 109.76 185.20 C 109.77 185.72 109.79 186.76 109.80 187.28 C 100.85 187.38 91.90 187.34 82.95 187.26 C 84.97 185.61 87.81 184.28 88.26 181.42 C 89.25 177.22 89.99 172.96 91.17 168.80 Z" />
</g>
<g id="#6265efff">
<path fill="#6265ef" opacity="1.00" d=" M 117.82 168.72 C 126.63 168.68 135.44 168.55 144.25 168.85 C 142.35 170.13 140.54 171.51 138.72 172.89 C 139.15 174.89 139.82 176.92 139.58 178.99 C 138.59 181.03 136.65 182.38 135.07 183.94 C 135.70 185.05 136.34 186.17 136.98 187.29 C 127.92 187.36 118.86 187.36 109.80 187.28 C 109.79 186.76 109.77 185.72 109.76 185.20 C 112.29 182.90 115.13 180.72 116.67 177.59 C 117.73 174.76 117.59 171.68 117.82 168.72 Z" />
</g>
<g id="#526bf2ff">
<path fill="#526bf2" opacity="1.00" d=" M 144.25 168.85 C 152.55 168.49 160.86 168.64 169.16 168.78 C 167.91 173.39 165.41 177.63 161.11 179.98 C 162.00 180.66 162.89 181.34 163.78 182.03 C 162.77 183.76 161.78 185.49 160.79 187.23 C 152.85 187.40 144.91 187.36 136.98 187.29 C 136.34 186.17 135.70 185.05 135.07 183.94 C 136.65 182.38 138.59 181.03 139.58 178.99 C 139.82 176.92 139.15 174.89 138.72 172.89 C 140.54 171.51 142.35 170.13 144.25 168.85 Z" />
</g>
<g id="#5d5cbed7">
<path fill="#5d5cbe" opacity="0.84" d=" M 34.84 187.36 C 50.87 187.32 66.91 187.44 82.95 187.26 C 91.90 187.34 100.85 187.38 109.80 187.28 C 118.86 187.36 127.92 187.36 136.98 187.29 C 144.91 187.36 152.85 187.40 160.79 187.23 C 167.57 187.39 174.35 187.35 181.12 187.35 C 182.82 187.39 184.52 187.47 186.22 187.49 C 181.84 188.18 177.41 187.91 173.00 187.92 C 132.00 187.96 91.00 188.01 50.00 187.90 C 44.94 187.80 39.85 188.23 34.84 187.36 Z" />
</g>
</svg>
